<?xml version="1.0" encoding="UTF-8"?>
<svg id="_레이어_2" data-name="레이어 2" xmlns="http://www.w3.org/2000/svg" viewBox="0 0 329.11 81.52">
  <defs>
    <style>
      .cls-1 {
        fill: #fff;
      }
    </style>
  </defs>
  <g id="_레이어_1-2" data-name="레이어 1">
    <g>
      <path class="cls-1" d="M77.48,43.97H0v-9.66H77.48v9.66Zm-23.09,7.27c4.58,1.25,8.1,3.09,10.57,5.53,2.47,2.44,3.72,5.34,3.75,8.72-.03,3.31-1.28,6.17-3.75,8.58-2.47,2.41-5.99,4.25-10.57,5.53-4.58,1.28-9.96,1.92-16.15,1.92s-11.52-.64-16.1-1.92c-4.58-1.28-8.1-3.12-10.57-5.53-2.47-2.41-3.7-5.27-3.7-8.58s1.23-6.28,3.7-8.72c2.47-2.44,5.98-4.28,10.55-5.53,4.56-1.25,9.94-1.88,16.12-1.88s11.57,.63,16.15,1.88ZM63.19,9.42H8.72V0H63.19V9.42ZM28.22,59.04c-2.75,.55-4.84,1.37-6.28,2.46-1.44,1.09-2.16,2.42-2.16,3.98s.72,2.77,2.16,3.82c1.44,1.05,3.52,1.82,6.26,2.32,2.73,.5,6.09,.77,10.05,.8,3.97-.03,7.33-.3,10.08-.8,2.75-.5,4.85-1.27,6.3-2.32,1.45-1.05,2.18-2.32,2.18-3.82s-.73-2.89-2.18-3.98c-1.45-1.09-3.57-1.91-6.35-2.46-2.78-.55-6.12-.82-10.03-.82s-7.28,.27-10.03,.82Zm12.66-22.15h-11.86V19.36h11.86v17.53ZM68.3,7.41c-.03,4.53-.19,8.45-.47,11.77-.28,3.31-.94,6.88-1.97,10.69l-11.77-1.17c.94-3.78,1.54-7.17,1.8-10.17,.27-3,.41-6.58,.45-10.73V0h11.95V7.41Z"/>
      <path class="cls-1" d="M122.55,21.75c-3.08,6.43-7.6,11.94-13.57,16.56-5.97,4.61-13.23,8.19-21.8,10.73l-5.02-9.98c6.97-2.04,12.86-4.7,17.67-7.98,4.81-3.28,8.43-7.02,10.85-11.22,2.42-4.2,3.63-8.72,3.63-13.57V0h12.84c0,8.07-1.54,15.32-4.62,21.75Zm-2.16-11.83h-35.06V0h35.06V9.91Zm-13.33,64.8h-12.09v-23.62h12.09v23.62Zm46.31,6.8h-58.41v-9.66h58.41v9.66Zm-2.91-24.19h-12.14V0h12.14V57.33Zm11.53-27.38h-15v-9.84h15v9.84Z"/>
      <path class="cls-1" d="M197.77,81.52h-14.16V16.1h-.38l-15.52,11.82V12.84L184.5,0h13.27V81.52Z"/>
      <path class="cls-1" d="M225.31,76.72c-4.08-3.2-7.2-7.84-9.38-13.94-2.17-6.1-3.26-13.44-3.26-22.02s1.09-15.88,3.26-21.99c2.17-6.12,5.3-10.77,9.38-13.97,4.08-3.2,8.95-4.79,14.6-4.79s10.48,1.6,14.58,4.79c4.09,3.2,7.23,7.85,9.42,13.97,2.19,6.12,3.28,13.45,3.28,21.99s-1.09,15.98-3.26,22.08c-2.17,6.1-5.3,10.74-9.4,13.91-4.09,3.18-8.97,4.77-14.63,4.77s-10.52-1.6-14.6-4.79Zm21.52-11.81c1.95-2.01,3.44-5.04,4.45-9.09,1.02-4.05,1.51-9.07,1.48-15.07,0-5.92-.52-10.91-1.55-14.98-1.03-4.07-2.52-7.13-4.45-9.18-1.94-2.05-4.22-3.07-6.84-3.07s-4.94,1.02-6.84,3.07c-1.91,2.05-3.39,5.1-4.45,9.18-1.06,4.07-1.59,9.07-1.59,14.98s.53,11.01,1.59,15.07,2.54,7.09,4.43,9.09c1.89,2.01,4.18,3.01,6.87,3.01s4.96-1,6.91-3.01Z"/>
      <path class="cls-1" d="M315.42,3.86c4.09,2.54,7.39,6.69,9.89,12.46,2.5,5.77,3.77,13.22,3.8,22.35,0,8.87-1.13,16.53-3.4,22.95-2.27,6.43-5.51,11.35-9.73,14.76-4.22,3.42-9.16,5.12-14.81,5.12-4.47,0-8.47-1.02-12-3.07s-6.37-4.82-8.51-8.33-3.45-7.51-3.91-12h13.88c.38,1.94,1.05,3.6,2.04,4.99,.98,1.39,2.2,2.45,3.63,3.18,1.44,.73,3.06,1.1,4.88,1.1,3.03,0,5.61-1.02,7.73-3.07,2.12-2.05,3.72-4.97,4.78-8.77,1.06-3.8,1.61-8.36,1.64-13.7h-.61c-1.06,2.3-2.47,4.28-4.22,5.94-1.75,1.66-3.76,2.94-6.02,3.83-2.27,.9-4.65,1.34-7.15,1.34-4.03,0-7.66-1.1-10.88-3.29s-5.76-5.22-7.62-9.09c-1.86-3.87-2.79-8.24-2.79-13.09,0-5.3,1.07-10.03,3.21-14.22,2.14-4.18,5.16-7.44,9.07-9.78,3.91-2.34,8.38-3.51,13.41-3.51,5.03,.04,9.59,1.32,13.69,3.86Zm-19.83,12.9c-1.84,1.08-3.28,2.54-4.31,4.38-1.03,1.84-1.53,3.86-1.5,6.05,0,2.25,.52,4.27,1.55,6.07,1.03,1.8,2.44,3.23,4.22,4.29,1.78,1.06,3.81,1.59,6.09,1.59s4.35-.55,6.21-1.64c1.86-1.09,3.33-2.55,4.41-4.38s1.62-3.84,1.62-6.02c-.03-2.12-.57-4.1-1.62-5.93s-2.48-3.29-4.31-4.38c-1.83-1.09-3.88-1.64-6.16-1.64s-4.34,.54-6.19,1.62Z"/>
    </g>
  </g>
</svg>