<svg width="282" height="71" viewBox="0 0 282 71" fill="none" xmlns="http://www.w3.org/2000/svg">
<path d="M66.3892 37.7908H0V29.4959H66.3892V37.7908ZM46.6044 44.0334C50.5288 45.1068 53.545 46.6868 55.6614 48.782C57.7778 50.8772 58.8489 53.3673 58.8746 56.2697C58.8489 59.1119 57.7778 61.5678 55.6614 63.6372C53.545 65.7067 50.5288 67.2866 46.6044 68.3857C42.68 69.4849 38.0701 70.0344 32.7662 70.0344C27.4622 70.0344 22.8952 69.4849 18.9708 68.3857C15.0464 67.2866 12.0303 65.7067 9.91383 63.6372C7.79739 61.5678 6.74346 59.1119 6.74346 56.2697C6.74346 53.4275 7.79739 50.8772 9.91383 48.782C12.0303 46.6868 15.0378 45.1068 18.9537 44.0334C22.8609 42.9601 27.4708 42.4191 32.7662 42.4191C38.0616 42.4191 42.68 42.9601 46.6044 44.0334ZM54.1448 8.12324H7.47179V0.0344238H54.1448V8.12324ZM24.1805 50.7312C21.8241 51.2035 20.0333 51.9076 18.7994 52.8436C17.5656 53.7795 16.9486 54.9216 16.9486 56.2611C16.9486 57.6007 17.5656 58.6397 18.7994 59.5413C20.0333 60.4429 21.8156 61.1041 24.1634 61.5334C26.5026 61.9628 29.3816 62.1946 32.7748 62.2204C36.1765 62.1946 39.0555 61.9628 41.4119 61.5334C43.7682 61.1041 45.5676 60.4429 46.8101 59.5413C48.0525 58.6397 48.678 57.5491 48.678 56.2611C48.678 54.9731 48.0525 53.7795 46.8101 52.8436C45.5676 51.9076 43.7511 51.2035 41.369 50.7312C38.987 50.2589 36.1251 50.0271 32.7748 50.0271C29.4244 50.0271 26.5368 50.2589 24.1805 50.7312ZM35.0283 31.7113H24.866V16.6586H35.0283V31.7113ZM58.5233 6.39728C58.4976 10.2871 58.3605 13.6532 58.1206 16.504C57.8807 19.3463 57.3151 22.4118 56.4326 25.6833L46.3474 24.6787C47.1528 21.4329 47.6669 18.5219 47.8897 15.9459C48.1211 13.3698 48.241 10.2957 48.2753 6.73217V0.0344238H58.5147V6.39728H58.5233Z" fill="white"/>
<path d="M105.008 18.7108C102.369 24.2322 98.4957 28.9635 93.3803 32.9306C88.2649 36.8892 82.0441 39.9633 74.7008 42.1443L70.3994 33.5747C76.3717 31.8229 81.4186 29.5388 85.5401 26.7224C89.6615 23.9059 92.7634 20.6944 94.837 17.0879C96.9105 13.4814 97.9473 9.60017 97.9473 5.43555V0.0344238H108.949C108.949 6.96401 107.63 13.1895 104.991 18.7108H105.008ZM103.157 8.55258H73.1156V0.0344238H103.157V8.54399V8.55258ZM91.7351 64.1954H81.3757V43.9132H91.7351V64.1954ZM131.416 70.0344H81.3672V61.7395H131.416V70.0344ZM128.923 49.2628H118.52V0.0344238H128.923V49.2628ZM138.802 25.752H125.949V17.3026H138.802V25.752Z" fill="white"/>
<path d="M169.46 70.0344H157.327V13.8593H157.002L143.703 24.0089V11.0599L158.09 0.0344238H169.46V70.0344Z" fill="white"/>
<path d="M193.058 65.9127C189.562 63.1649 186.889 59.1806 185.021 53.9426C183.162 48.7047 182.228 42.4019 182.228 35.0344C182.228 27.6669 183.162 21.3985 185.021 16.1519C186.88 10.8967 189.562 6.90386 193.058 4.15607C196.554 1.40828 200.727 0.0429688 205.568 0.0429688C210.41 0.0429688 214.548 1.41686 218.061 4.15607C221.566 6.90386 224.256 10.8967 226.133 16.1519C228.009 21.4071 228.943 27.7012 228.943 35.0344C228.943 42.3676 228.009 48.7562 226.15 53.9941C224.291 59.2321 221.609 63.2164 218.096 65.9385C214.591 68.6691 210.41 70.0344 205.56 70.0344C200.71 70.0344 196.546 68.6605 193.05 65.9213L193.058 65.9127ZM211.498 55.7716C213.169 54.0457 214.445 51.4439 215.311 47.9662C216.185 44.4885 216.605 40.1779 216.579 35.0258C216.579 29.9424 216.133 25.6575 215.251 22.1627C214.368 18.6678 213.092 16.0403 211.438 14.28C209.775 12.5197 207.822 11.6438 205.577 11.6438C203.332 11.6438 201.344 12.5197 199.716 14.28C198.079 16.0403 196.811 18.6593 195.903 22.1627C194.995 25.6575 194.541 29.951 194.541 35.0258C194.541 40.1006 194.995 44.4799 195.903 47.9662C196.811 51.4524 198.079 54.0543 199.699 55.7716C201.318 57.4976 203.28 58.3563 205.585 58.3563C207.89 58.3563 209.835 57.4976 211.506 55.7716H211.498Z" fill="white"/>
<path d="M270.269 3.34887C273.774 5.52993 276.602 9.09348 278.744 14.0481C280.886 19.0027 281.974 25.3999 282 33.2397C282 40.8562 281.031 47.4338 279.086 52.9465C277.141 58.4679 274.365 62.6926 270.749 65.6207C267.133 68.5574 262.9 70.0172 258.059 70.0172C254.229 70.0172 250.802 69.1413 247.777 67.381C244.752 65.6207 242.319 63.2422 240.485 60.2282C238.651 57.2142 237.529 53.7794 237.135 49.924H249.028C249.354 51.5898 249.928 53.0152 250.776 54.2088C251.616 55.4024 252.661 56.3126 253.886 56.9394C255.12 57.5662 256.508 57.884 258.068 57.884C260.664 57.884 262.875 57.0081 264.691 55.2478C266.508 53.4875 267.879 50.9801 268.787 47.7171C269.695 44.4541 270.167 40.5385 270.192 35.9531H269.67C268.761 37.9281 267.553 39.6283 266.054 41.0537C264.554 42.4792 262.832 43.5783 260.895 44.3425C258.95 45.1153 256.911 45.4931 254.769 45.4931C251.316 45.4931 248.205 44.5486 245.446 42.6681C242.687 40.7875 240.511 38.1857 238.917 34.8626C237.323 31.5395 236.526 27.787 236.526 23.6224C236.526 19.0714 237.443 15.0098 239.277 11.4119C241.111 7.82262 243.698 5.02331 247.049 3.01398C250.399 1.00466 254.229 0 258.539 0C262.849 0.0343474 266.756 1.13346 270.269 3.31452V3.34887ZM253.278 14.4259C251.701 15.3533 250.467 16.607 249.585 18.187C248.702 19.7669 248.274 21.5015 248.3 23.382C248.3 25.314 248.745 27.0486 249.628 28.5942C250.51 30.1398 251.718 31.3678 253.244 32.278C254.769 33.1882 256.508 33.6433 258.462 33.6433C260.416 33.6433 262.189 33.171 263.783 32.235C265.377 31.2991 266.636 30.0454 267.562 28.474C268.487 26.9026 268.95 25.1766 268.95 23.3047C268.924 21.4843 268.461 19.7841 267.562 18.2127C266.662 16.6413 265.437 15.3876 263.869 14.4517C262.301 13.5157 260.544 13.0434 258.59 13.0434C256.637 13.0434 254.872 13.5071 253.286 14.4345L253.278 14.4259Z" fill="white"/>
</svg>
